<?xml version="1.0" encoding="UTF-8"?>
<svg version="1.1" xmlns="http://www.w3.org/2000/svg" width="64" height="64">
<path d="M0 0 C7.61216002 5.75067111 15.11743584 13.622375 17.68359375 23.02734375 C18.83396533 32.4316314 18.6224831 41.17364876 12.68359375 49.02734375 C8.1447789 54.08364818 2.77667106 57.60370989 -4.07861328 58.31323242 C-7.28829745 58.43075938 -10.47984342 58.43642873 -13.69140625 58.40234375 C-14.77679687 58.41394531 -15.8621875 58.42554688 -16.98046875 58.4375 C-25.81396676 58.40549457 -33.74877995 57.40732358 -40.31640625 51.02734375 C-45.98368401 44.87429932 -46.68438642 38.80849452 -46.62890625 30.77734375 C-46.62044678 29.5092688 -46.62044678 29.5092688 -46.61181641 28.21557617 C-46.41185622 17.93346504 -44.18408284 10.79297321 -37.31640625 3.02734375 C-36.79433594 2.43566406 -36.27226563 1.84398437 -35.734375 1.234375 C-27.33197203 -7.72109753 -9.89335618 -5.83172868 0 0 Z M-29.44140625 11.21484375 C-34.55151325 18.88000426 -36.32367641 26.93431585 -35.31640625 36.02734375 C-34.15274218 39.66304031 -32.8936486 42.9446287 -29.671875 45.15625 C-21.25173923 48.27016422 -11.52939034 49.03733962 -3.00390625 46.21484375 C1.04090295 44.3468405 3.49093575 42.76547053 5.55859375 38.77734375 C7.39541661 32.86629147 7.06638309 28.0211498 4.4765625 22.4140625 C0.36345737 15.08861142 -4.13570404 10.25270912 -12.234375 7.52734375 C-18.62209613 5.99333192 -24.7097304 6.34400096 -29.44140625 11.21484375 Z " fill="#000000" transform="translate(46.31640625,5.97265625)"/>
<path d="M0 0 C2.12890625 0.41015625 2.12890625 0.41015625 4.69140625 1.91015625 C6.73279638 5.46039995 6.90703932 8.41300953 6.12890625 12.41015625 C4.69140625 14.91015625 4.69140625 14.91015625 2.12890625 16.41015625 C-2.21263181 17.17490424 -5.62747074 17.16846297 -9.43359375 14.84765625 C-11.44324099 11.43999353 -11.41787514 9.30597362 -10.87109375 5.41015625 C-8.32547797 0.20824575 -5.41764338 -0.34808582 0 0 Z " fill="#000000" transform="translate(33.87109375,23.58984375)"/>
</svg>
