<?xml version="1.0" encoding="UTF-8"?>
<svg version="1.1" xmlns="http://www.w3.org/2000/svg" width="64" height="64">
<path d="M0 0 C2.96768471 0.44515271 3.67406983 1.0542163 5.5 3.375 C5.53336272 5.39344464 5.55660422 7.41296418 5.51025391 9.43115234 C5.47842844 17.01622294 6.63634972 21.96899774 11.8515625 27.6796875 C15.96928545 31.79429096 20.30535988 35.65152422 24.78759766 39.36474609 C26.5 41.375 26.5 41.375 26.82568359 44.01025391 C26.5 46.375 26.5 46.375 25.375 48.1875 C22.60138077 49.94412551 20.73489164 49.73575385 17.5 49.375 C14.9453125 47.40625 14.9453125 47.40625 12.625 44.875 C11.45324219 43.62203125 11.45324219 43.62203125 10.2578125 42.34375 C9.67773438 41.6940625 9.09765625 41.044375 8.5 40.375 C8.46261719 41.13425781 8.42523438 41.89351562 8.38671875 42.67578125 C8.32097656 43.66964844 8.25523438 44.66351563 8.1875 45.6875 C8.12949219 46.67363281 8.07148437 47.65976562 8.01171875 48.67578125 C7.44848249 51.64674503 6.92034186 52.62274282 4.5 54.375 C1.73444859 54.78983271 0.22210105 54.89384298 -2.08203125 53.23828125 C-4.04714595 50.65602309 -4.24120264 48.38024264 -4.6875 45.1875 C-4.92533203 43.55748047 -4.92533203 43.55748047 -5.16796875 41.89453125 C-5.27753906 41.06308594 -5.38710938 40.23164062 -5.5 39.375 C-9.65070459 42.08815522 -9.65070459 42.08815522 -13.5625 45.125 C-16.08534927 46.75264469 -17.55159414 46.8286009 -20.5 46.375 C-22.3125 45.25 -22.3125 45.25 -23.5 43.375 C-23.85546875 40.5078125 -23.85546875 40.5078125 -23.5 37.375 C-21.59375 35.25 -21.59375 35.25 -19 33.375 C-18.1646875 32.75625 -17.329375 32.1375 -16.46875 31.5 C-13.5 29.375 -13.5 29.375 -11.38208008 28.1472168 C-7.04689466 25.48292822 -7.04689466 25.48292822 -4.90966797 21.06884766 C-4.82021994 18.40022971 -4.94682831 15.84644078 -5.1875 13.1875 C-5.30866509 11.40318455 -5.41730246 9.61796186 -5.51171875 7.83203125 C-5.57834717 7.04803955 -5.64497559 6.26404785 -5.71362305 5.45629883 C-5.5 3.375 -5.5 3.375 -4.15551758 1.61987305 C-2.5 0.375 -2.5 0.375 0 0 Z " fill="#000000" transform="translate(30.5,4.625)"/>
</svg>
