<?xml version="1.0" encoding="UTF-8"?>
<svg version="1.1" xmlns="http://www.w3.org/2000/svg" width="64" height="64">
<path d="M0 0 C1.31291016 0.00676758 1.31291016 0.00676758 2.65234375 0.01367188 C3.59464844 0.03494141 4.53695313 0.05621094 5.5078125 0.078125 C6.48363281 0.08908203 7.45945312 0.10003906 8.46484375 0.11132812 C16.06969049 0.22388377 23.6636803 0.54795249 31.25683594 0.97607422 C37.53738519 1.32286037 43.72743426 1.3266656 50.015625 1.0703125 C52.6328125 1.328125 52.6328125 1.328125 54.48828125 2.64453125 C55.6328125 4.328125 55.6328125 4.328125 55.8203125 7.390625 C54.71521166 13.05872284 50.28769613 17.09517304 46.6328125 21.328125 C45.21358322 23.0969052 43.79696011 24.86777936 42.3828125 26.640625 C38.39290834 31.51563788 34.19186994 36.15554462 29.87963867 40.74414062 C27.17946293 43.62084117 24.63144997 46.53266611 22.1953125 49.640625 C19.6328125 52.328125 19.6328125 52.328125 17.0703125 53.140625 C13.38414869 51.91190373 11.59042177 49.55170657 9.6328125 46.328125 C7.49013143 40.84250582 5.9229484 35.16619548 4.29101562 29.51171875 C2.04441201 22.23353261 -0.49879304 17.15970755 -5.78198242 11.61816406 C-7.84852657 8.63276686 -7.88075558 6.88750774 -7.3671875 3.328125 C-5.33554164 0.25761525 -3.56526994 -0.04314326 0 0 Z " fill="#000000" transform="translate(7.3671875,8.671875)"/>
</svg>
