<?xml version="1.0" encoding="UTF-8"?>
<svg version="1.1" xmlns="http://www.w3.org/2000/svg" width="64" height="64">
<path d="M0 0 C6.99687265 0.14562371 12.49620104 0.51820833 17.80859375 5.34765625 C20.24586043 8.15114435 21.73460993 10.68409841 23.31640625 14.08203125 C23.89390625 15.23703125 24.47140625 16.39203125 25.06640625 17.58203125 C27.42373943 24.28733453 27.75451957 32.76074388 25.5078125 39.51171875 C24.28431355 41.62003182 22.96446581 43.28484333 21.31640625 45.08203125 C20.62675781 45.85289063 19.93710937 46.62375 19.2265625 47.41796875 C12.94998439 54.04861024 8.5134919 58.21317175 -0.80859375 58.58203125 C-10.45895638 58.21598301 -18.79431526 56.45499852 -25.87109375 49.58203125 C-31.49941359 43.48381457 -32.55204341 38.4275812 -32.24609375 30.171875 C-31.27756489 19.94178895 -23.49228868 10.66036237 -16.234375 3.953125 C-10.97437238 0.09471573 -6.33799554 0.14114306 0 0 Z M-12.9609375 16.75 C-17.53641197 22.94400966 -21.2779573 29.2122176 -20.68359375 37.08203125 C-19.6243157 40.2598654 -18.48446054 41.64731667 -15.5390625 43.24609375 C-9.39863308 45.86827406 -3.20660664 48.23240281 3.37890625 46.08203125 C8.39081014 42.66967115 14.12916147 38.31506634 15.31640625 32.08203125 C15.39111675 25.73163859 13.86278612 19.40723023 10.31640625 14.08203125 C3.23228796 9.13741177 -7.22150373 10.76685355 -12.9609375 16.75 Z " fill="#000000" transform="translate(35.68359375,2.91796875)"/>
</svg>
