<?xml version="1.0" encoding="UTF-8"?>
<svg version="1.1" xmlns="http://www.w3.org/2000/svg" width="64" height="64">
<path d="M0 0 C5.11206053 3.49116329 7.04958563 6.15398349 8.33764648 12.14868164 C8.49434814 12.9864917 8.6510498 13.82430176 8.8125 14.6875 C8.98015869 15.55689209 9.14781738 16.42628418 9.32055664 17.32202148 C10.49157033 23.9855478 10.95520542 30.55146583 11 37.3125 C11.00999023 38.21025146 11.01998047 39.10800293 11.03027344 40.03295898 C11.01899414 40.86899658 11.00771484 41.70503418 10.99609375 42.56640625 C10.98634521 43.30318604 10.97659668 44.03996582 10.96655273 44.79907227 C10.44932181 47.29646943 9.55884853 48.20360024 7.5625 49.75 C5.0625 50.125 5.0625 50.125 2.5625 49.75 C0.33818374 48.09260697 -0.35681413 47.13558805 -0.92993164 44.39672852 C-0.98528076 43.48334717 -1.04062988 42.56996582 -1.09765625 41.62890625 C-1.16807129 40.61570313 -1.23848633 39.6025 -1.31103516 38.55859375 C-1.37339355 37.48738281 -1.43575195 36.41617188 -1.5 35.3125 C-1.65122206 33.13645662 -1.80613101 30.96066611 -1.96484375 28.78515625 C-2.0407373 27.74246582 -2.11663086 26.69977539 -2.19482422 25.62548828 C-2.61841315 20.60634295 -3.42048389 15.68361008 -4.4375 10.75 C-11.67766746 10.91626689 -17.76662306 11.98368012 -23.4375 16.75 C-28.08790917 22.48067419 -28.15432291 30.29284876 -28.57983398 37.3659668 C-28.9496906 42.30994678 -29.67204554 45.1878941 -33.4375 48.75 C-36.28664929 49.30593157 -37.65197102 49.25340238 -40.1015625 47.68359375 C-42.16020715 44.7039765 -41.57604902 41.75953363 -41.25 38.3125 C-41.19175049 37.60109863 -41.13350098 36.88969727 -41.07348633 36.15673828 C-39.46351539 17.78121846 -39.46351539 17.78121846 -34.4375 11.75 C-33.715625 10.739375 -32.99375 9.72875 -32.25 8.6875 C-24.6963013 -0.19509014 -10.8833731 -3.95759022 0 0 Z " fill="#000000" transform="translate(48.4375,7.25)"/>
</svg>
