<?xml version="1.0" encoding="UTF-8"?>
<svg version="1.1" xmlns="http://www.w3.org/2000/svg" width="64" height="64">
<path d="M0 0 C1.51660973 -0.01407143 1.51660973 -0.01407143 3.06385803 -0.02842712 C4.14936447 -0.01719315 5.23487091 -0.00595917 6.35327148 0.00561523 C7.47249496 0.00416 8.59171844 0.00270477 9.74485779 0.00120544 C12.10939133 0.00286465 14.47393564 0.01442821 16.83837891 0.03515625 C20.46425045 0.06412816 24.08866198 0.05576136 27.71459961 0.04272461 C30.0108307 0.04896135 32.30705716 0.05735178 34.60327148 0.06811523 C35.69080215 0.0651796 36.77833282 0.06224396 37.89881897 0.05921936 C38.90673996 0.07190353 39.91466095 0.08458771 40.953125 0.09765625 C42.2840493 0.10576073 42.2840493 0.10576073 43.64186096 0.11402893 C46.37718478 0.58117804 47.27139394 1.29687382 48.91186523 3.50170898 C49.28686523 6.00170898 49.28686523 6.00170898 48.91186523 8.50170898 C47.26169527 10.7254574 46.34754537 11.42285943 43.59716797 11.92062378 C42.23507202 11.95085129 42.23507202 11.95085129 40.84545898 11.98168945 C39.29870483 12.0259053 39.29870483 12.0259053 37.72070312 12.0710144 C36.60816162 12.08681549 35.49562012 12.10261658 34.34936523 12.11889648 C32.63511353 12.15649582 32.63511353 12.15649582 30.88623047 12.19485474 C28.46880487 12.2438527 26.05121838 12.28539256 23.63354492 12.32006836 C19.92602947 12.37649342 16.22022281 12.46483422 12.51342773 12.55639648 C10.16710855 12.59998849 7.82075386 12.64171795 5.47436523 12.68139648 C3.80555298 12.72331619 3.80555298 12.72331619 2.10302734 12.76608276 C1.07185791 12.77664703 0.04068848 12.7872113 -1.02172852 12.7980957 C-1.92979248 12.81347382 -2.83785645 12.82885193 -3.7734375 12.84469604 C-6.08813477 12.50170898 -6.08813477 12.50170898 -7.87744141 11.13552856 C-9.08813477 9.50170898 -9.08813477 9.50170898 -9.52563477 7.06420898 C-8.61317118 1.71977943 -5.07770301 0.00095009 0 0 Z " fill="#000000" transform="translate(11.088134765625,24.498291015625)"/>
</svg>
