<?xml version="1.0" encoding="UTF-8"?>
<svg version="1.1" xmlns="http://www.w3.org/2000/svg" width="64" height="64">
<path d="M0 0 C1.29317139 0.04930664 2.58634277 0.09861328 3.91870117 0.14941406 C5.31042891 0.21850445 6.70211158 0.28850816 8.09375 0.359375 C9.5042693 0.42253653 10.91483326 0.48470818 12.32543945 0.54589844 C15.12312271 0.66908096 17.9202186 0.80110318 20.71728516 0.9375 C24.05678984 1.08556722 27.3884267 1.18000523 30.73046875 1.234375 C31.60058594 1.2559668 32.47070312 1.27755859 33.3671875 1.29980469 C34.93066121 1.33838555 36.49464769 1.36090458 38.05859375 1.36425781 C41.46722463 1.48439283 43.33743351 1.91155229 46.05859375 4.01171875 C48.28972655 8.51372463 48.10304084 12.46433948 47.96875 17.421875 C47.95368408 18.41993164 47.93861816 19.41798828 47.9230957 20.44628906 C47.75813098 28.09541169 47.34013869 35.72955674 46.78125 43.359375 C46.71147949 44.38844971 46.64170898 45.41752441 46.56982422 46.4777832 C46.48877441 47.43386475 46.40772461 48.38994629 46.32421875 49.375 C46.22210083 50.64005371 46.22210083 50.64005371 46.11791992 51.93066406 C45.48423075 54.56459147 44.78578171 55.53400896 42.59375 57.109375 C40.70629883 57.48168945 40.70629883 57.48168945 38.55078125 57.47265625 C37.73544922 57.47354248 36.92011719 57.47442871 36.08007812 57.4753418 C35.19771484 57.45769775 34.31535156 57.44005371 33.40625 57.421875 C32.03436523 57.4060437 32.03436523 57.4060437 30.63476562 57.38989258 C23.27417838 57.25278117 15.93456317 56.8423659 8.59375 56.296875 C7.57385986 56.22702393 6.55396973 56.15717285 5.50317383 56.08520508 C-0.78400188 55.55498677 -4.82343376 54.69219124 -9.40625 50.109375 C-10.89210981 42.53148998 -10.56300263 34.79786337 -10.40625 27.109375 C-10.38836426 26.12517578 -10.37047852 25.14097656 -10.35205078 24.12695312 C-10.28441024 20.87033254 -10.19227892 17.61519766 -10.09375 14.359375 C-10.07135254 13.29912109 -10.04895508 12.23886719 -10.02587891 11.14648438 C-9.99026855 10.14939453 -9.9546582 9.15230469 -9.91796875 8.125 C-9.89178467 7.23071289 -9.86560059 6.33642578 -9.83862305 5.41503906 C-9.40625 3.109375 -9.40625 3.109375 -8.2746582 1.30273438 C-5.47832885 -0.48329174 -3.28830104 -0.14499164 0 0 Z M1.59375 12.109375 C1.39554011 16.12975468 1.2121033 20.15068012 1.03125 24.171875 C0.97517578 25.30560547 0.91910156 26.43933594 0.86132812 27.60742188 C0.61391024 33.26504421 0.50296023 38.54230723 1.59375 44.109375 C5.40571152 44.44905921 9.2183892 44.77995095 13.03125 45.109375 C14.63516602 45.25246094 14.63516602 45.25246094 16.27148438 45.3984375 C22.40677771 45.92378372 28.43627506 46.21297079 34.59375 46.109375 C35.54931322 41.94183458 35.90825096 37.80410701 36.15625 33.546875 C36.21993774 32.49983398 36.21993774 32.49983398 36.28491211 31.43164062 C36.63153703 25.32211491 36.69804588 19.22806639 36.59375 13.109375 C24.90808979 12.2810244 13.30764465 11.98607085 1.59375 12.109375 Z " fill="#000000" transform="translate(14.40625,-0.109375)"/>
</svg>
