<?xml version="1.0" encoding="UTF-8"?>
<svg version="1.1" xmlns="http://www.w3.org/2000/svg" width="64" height="64">
<path d="M0 0 C2.15191653 1.97382688 3.94605549 3.84799776 5.8125 6.0625 C6.87729356 7.26820541 7.94499311 8.47135087 9.015625 9.671875 C9.52931641 10.25130859 10.04300781 10.83074219 10.57226562 11.42773438 C15.74693337 17.1262399 21.95998523 21.49007274 28.1875 25.953125 C32.5832716 29.15226988 36.82641933 32.51701181 41 36 C41.57234375 36.474375 42.1446875 36.94875 42.734375 37.4375 C44.94892231 39.42810432 45.93660109 40.6671557 46.5 43.625 C46 46 46 46 44.875 47.8125 C42.12994142 49.5510371 40.19985949 49.31285755 37 49 C34.7890625 47.453125 34.7890625 47.453125 32.625 45.25 C29.08844752 41.84521177 25.55009377 38.87803529 21.54833984 36.03857422 C13.96088929 30.63762282 7.1525789 24.64209231 0.5 18.125 C-0.34361084 17.31627441 -1.18722168 16.50754883 -2.05639648 15.67431641 C-2.83184814 14.89749512 -3.6072998 14.12067383 -4.40625 13.3203125 C-5.10041016 12.63211426 -5.79457031 11.94391602 -6.50976562 11.23486328 C-8.45179731 8.32245207 -8.36037321 6.43355584 -8 3 C-5.88465919 -0.34001181 -3.78523241 -0.61832632 0 0 Z " fill="#000000" transform="translate(12,6)"/>
</svg>
