<?xml version="1.0" encoding="UTF-8"?>
<svg version="1.1" xmlns="http://www.w3.org/2000/svg" width="64" height="64">
<path d="M0 0 C1.8125 1.125 1.8125 1.125 3 3 C3.4765625 5.74609375 3.4765625 5.74609375 3 9 C1.15902476 11.35595748 -1.0908549 13.10220357 -3.4375 14.9375 C-4.07913086 15.46255127 -4.72076172 15.98760254 -5.38183594 16.52856445 C-9.47950241 19.86345515 -13.66577184 23.08662717 -17.85546875 26.3046875 C-26.27987787 32.96442075 -33.1201137 40.29348959 -39.4296875 48.96484375 C-41.36822968 51.52347862 -42.42018031 52.87575292 -45.625 53.5625 C-48.45768871 52.89160004 -49.43789797 52.4664769 -51 50 C-51.35866522 46.55681389 -51.34499757 44.59607913 -49.59375 41.5703125 C-40.14114163 30.53051243 -30.00027403 19.59427363 -18.375 10.81640625 C-14.62193648 7.9460534 -11.09907883 4.79712654 -7.54296875 1.6875 C-4.69056291 -0.20534074 -3.3499845 -0.46876916 0 0 Z " fill="#000000" transform="translate(57,4)"/>
</svg>
