<?xml version="1.0" encoding="UTF-8"?>
<svg version="1.1" xmlns="http://www.w3.org/2000/svg" width="64" height="64">
<path d="M0 0 C4.22679996 3.24593968 7.38668594 7.45308125 10.5625 11.6875 C13.35323385 15.37325763 16.05860027 17.53662517 20 20 C21.77784372 21.66409542 23.46055264 23.40106108 25.15234375 25.15234375 C27.00473147 27.00473147 28.9355757 28.68648851 30.9375 30.375 C34.72219697 33.62426503 37.92526963 37.22479775 41.1796875 40.99609375 C43.0512943 43.16247037 43.0512943 43.16247037 45.8125 45.25 C49.11898474 47.89518779 50.77402512 50.41817584 51.375 54.625 C50.9187944 57.51430215 50.27937708 58.22214928 48 60 C40.97854082 61.17162222 33.34445615 59.49989935 26.375 58.5 C17.78950105 57.32228732 9.60157586 56.75352598 0.94921875 57.1875 C-2 57 -2 57 -3.65673828 55.91772461 C-5.67350127 53.03846738 -5.40384979 50.61401103 -5.44140625 47.12890625 C-5.45461411 46.45133774 -5.46782196 45.77376923 -5.48143005 45.07566833 C-5.52228781 42.90457251 -5.54393285 40.73389228 -5.5625 38.5625 C-5.66175669 29.73266459 -5.85713742 21.14602832 -7.54736328 12.43945312 C-8.99700795 4.62669718 -8.99700795 4.62669718 -6.8125 1.0625 C-4.13033048 -0.50980627 -3.0832906 -0.70074786 0 0 Z " fill="#000000" transform="translate(10,2)"/>
</svg>
