<?xml version="1.0" encoding="UTF-8"?>
<svg version="1.1" xmlns="http://www.w3.org/2000/svg" width="64" height="64">
<path d="M0 0 C1.1751416 0.03939697 1.1751416 0.03939697 2.37402344 0.07958984 C5.30452043 0.24560322 7.60225646 0.42862459 10.1328125 1.984375 C11.56864001 4.53946963 11.68390056 5.85661479 11.125 8.75 C8.9296875 11.28515625 8.9296875 11.28515625 6 13.8125 C5.04867187 14.64910156 4.09734375 15.48570313 3.1171875 16.34765625 C0.21752837 18.67571155 -2.77608669 20.69937138 -5.875 22.75 C-12.76083634 28.30390449 -18.97141869 34.72042419 -25.25 40.9375 C-26.03536133 41.70980957 -26.82072266 42.48211914 -27.62988281 43.27783203 C-31.57635156 47.21835474 -34.98158118 50.97956846 -37.875 55.75 C-38.875 56.75 -38.875 56.75 -41.25 57 C-43.875 56.75 -43.875 56.75 -45.51855469 55.74804688 C-47.66479025 52.58663725 -47.26141068 49.21912679 -47.203125 45.53125 C-47.20125183 44.71813354 -47.19937866 43.90501709 -47.19744873 43.06726074 C-47.19072327 41.34232498 -47.17679894 39.6174046 -47.15625 37.89257812 C-47.12544478 35.2876116 -47.11530924 32.68325465 -47.109375 30.078125 C-47.00272112 6.19453774 -47.00272112 6.19453774 -44.51757812 3.01123047 C-35.36481584 -4.01658909 -11.04410362 -0.47555224 0 0 Z " fill="#000000" transform="translate(49.875,2.25)"/>
</svg>
