<?xml version="1.0" encoding="UTF-8"?>
<svg version="1.1" xmlns="http://www.w3.org/2000/svg" width="64" height="64">
<path d="M0 0 C1.54675415 -0.01418472 1.54675415 -0.01418472 3.12475586 -0.02865601 C4.23729736 -0.02258331 5.34983887 -0.01651062 6.49609375 -0.01025391 C7.63892822 -0.01312408 8.7817627 -0.01599426 9.95922852 -0.01895142 C12.3767954 -0.02099398 14.79437874 -0.01545079 17.21191406 -0.00292969 C20.9189946 0.01312039 24.62498475 -0.00277281 28.33203125 -0.02197266 C30.67838783 -0.01999026 33.02474373 -0.01614666 35.37109375 -0.01025391 C37.03990601 -0.01936295 37.03990601 -0.01936295 38.74243164 -0.02865601 C39.77360107 -0.01919952 40.80477051 -0.00974304 41.8671875 0 C43.22928345 0.00358017 43.22928345 0.00358017 44.61889648 0.00723267 C47.37699985 0.461159 48.27252298 1.17842359 49.93359375 3.38818359 C50.19140625 5.30712891 50.19140625 5.30712891 50.05859375 7.46630859 C49.88991541 12.44231963 50.37785991 17.19837961 50.93359375 22.13818359 C51.70740684 29.74141083 52.20158856 37.30783762 52.30859375 44.95068359 C52.334375 45.8365918 52.36015625 46.7225 52.38671875 47.63525391 C52.39876664 51.50111939 52.38926657 53.69843228 50.22265625 56.97802734 C47.44436991 58.68956551 46.13979823 58.97932754 42.93359375 58.38818359 C40.93359375 56.98974609 40.93359375 56.98974609 38.93359375 55.01318359 C35.28729356 51.57316328 31.50244223 48.45661367 27.49609375 45.45068359 C21.68936062 41.05042562 16.27541769 36.3461639 10.93359375 31.38818359 C9.83559929 30.39232816 8.7365818 29.39759989 7.63671875 28.40380859 C4.36391734 25.43842551 1.14028164 22.42474354 -2.06640625 19.38818359 C-2.77925781 18.72689453 -3.49210938 18.06560547 -4.2265625 17.38427734 C-7.26753018 14.28579727 -8.43775261 11.89135198 -8.62890625 7.63818359 C-8.56207791 5.0897963 -8.39899014 3.82668001 -6.8515625 1.78646851 C-4.47015841 -0.078848 -3.00666536 0.0079028 0 0 Z " fill="#000000" transform="translate(10.06640625,4.61181640625)"/>
</svg>
