<?xml version="1.0" encoding="UTF-8"?>
<svg version="1.1" xmlns="http://www.w3.org/2000/svg" width="64" height="64">
<path d="M0 0 C3.10740306 0.62148061 3.93242465 1.09045783 5.8125 3.5625 C5.88232422 5.4375 5.88232422 5.4375 5.4921875 7.5625 C4.69107853 12.93796291 4.82537207 18.1410001 4.9375 23.5625 C5.01133578 30.89055349 4.77983736 37.96245589 3.5 45.1875 C3.38221191 45.86683594 3.26442383 46.54617187 3.14306641 47.24609375 C2.14277813 52.27699304 0.43830245 55.93669755 -3.1875 59.5625 C-5.39697266 59.56542969 -5.39697266 59.56542969 -8.2265625 59.234375 C-13.35315046 58.71084765 -18.43962391 58.39364938 -23.5859375 58.203125 C-25.82057118 58.10656485 -28.05505515 58.00692466 -30.28955078 57.90722656 C-31.81529479 57.84364024 -33.34137757 57.78775278 -34.86767578 57.73925781 C-37.10860571 57.6657534 -39.34649054 57.56216398 -41.5859375 57.453125 C-42.90255371 57.40188477 -44.21916992 57.35064453 -45.57568359 57.29785156 C-50.21550004 56.35320325 -51.89139468 54.90561196 -55.1875 51.5625 C-55.875 49 -55.875 49 -55.1875 46.5625 C-52.82357461 44.26810183 -50.33233883 42.65153328 -47.53125 40.9296875 C-43.18998411 38.03484215 -39.55844188 34.35930165 -35.8125 30.75 C-30.3810714 25.54813718 -24.87550342 20.48258437 -19.1875 15.5625 C-17.47494211 14.04642538 -15.76592137 12.52633301 -14.0625 11 C-12.79792969 9.87078125 -12.79792969 9.87078125 -11.5078125 8.71875 C-9.53423079 6.88471447 -7.73834049 4.99883866 -5.9375 3 C-3.1875 0.5625 -3.1875 0.5625 0 0 Z " fill="#000000" transform="translate(58.1875,4.4375)"/>
</svg>
