<?xml version="1.0" encoding="UTF-8"?>
<svg version="1.1" xmlns="http://www.w3.org/2000/svg" width="64" height="64">
<path d="M0 0 C0.71520813 0.12539658 1.43041626 0.25079315 2.16729736 0.37998962 C6.97935124 1.09436802 11.66435467 1.26655864 16.52374268 1.32896423 C18.29458168 1.36186352 20.06541489 1.39507574 21.83624268 1.42857361 C24.59011371 1.47613062 27.34395494 1.52070077 30.09796143 1.55967712 C32.78177479 1.59941089 35.4651644 1.65089833 38.14874268 1.70396423 C38.96965393 1.71237839 39.79056519 1.72079254 40.63635254 1.72946167 C45.73994151 1.83956482 49.50036545 2.54071915 53.94561768 5.20787048 C55.8595452 8.39774968 54.82125997 11.62442859 54.07061768 15.08287048 C53.58737781 16.86513856 53.10004391 18.64629926 52.60968018 20.42662048 C50.47603034 28.87290862 49.94771752 37.43627797 49.25421143 46.09654236 C49.14206299 47.3411322 49.02991455 48.58572205 48.91436768 49.86802673 C48.82348877 50.99088074 48.73260986 52.11373474 48.63897705 53.27061462 C48.03071468 56.28031145 47.54908144 57.32854983 45.07061768 59.08287048 C42.27486368 59.50223358 40.77676865 59.5783559 38.43389893 57.93443298 C34.13780842 52.09962811 37.23575607 39.28742506 37.94561768 32.27037048 C38.02384766 31.49499939 38.10207764 30.7196283 38.18267822 29.92076111 C38.78838623 24.47228716 39.86759105 19.49649028 41.07061768 14.08287048 C23.74561768 13.58787048 23.74561768 13.58787048 6.07061768 13.08287048 C6.06880946 23.53908046 6.06880946 23.53908046 6.50811768 33.95787048 C6.54743408 34.66427673 6.58675049 35.37068298 6.6272583 36.09849548 C6.87229165 40.15473992 7.36523512 44.0838065 8.07061768 48.08287048 C8.52993265 52.2468243 8.49593131 55.32675736 6.38311768 59.08287048 C4.07061768 61.08287048 4.07061768 61.08287048 1.50811768 61.58287048 C-1.41715032 60.98281551 -2.14898356 60.45319986 -3.92938232 58.08287048 C-4.45355225 55.28648376 -4.45355225 55.28648376 -4.65985107 51.90318298 C-4.74041748 50.66310486 -4.82098389 49.42302673 -4.9039917 48.14537048 C-4.97424561 46.84599548 -5.04449951 45.54662048 -5.11688232 44.20787048 C-5.19873779 42.94716736 -5.28059326 41.68646423 -5.3649292 40.38755798 C-6.0056499 29.92065847 -6.28619659 19.43067015 -5.61688232 8.95787048 C-5.55887451 7.90341736 -5.5008667 6.84896423 -5.44110107 5.76255798 C-4.79810441 2.39541517 -3.68745163 0.15838276 0 0 Z " fill="#000000" transform="translate(6.92938232421875,0.9171295166015625)"/>
</svg>
