<?xml version="1.0" encoding="UTF-8"?>
<svg version="1.1" xmlns="http://www.w3.org/2000/svg" width="64" height="64">
<path d="M0 0 C0.7530542 0.09643799 1.5061084 0.19287598 2.28198242 0.29223633 C9.21076282 1.11319554 16.04877103 1.08796837 23.01342773 0.75 C26.64325771 0.64437294 28.88036667 0.6068702 32.0703125 2.4453125 C35.78367298 8.80274117 34.64771086 17.01773513 34.25 24.125 C34.17724854 25.48890869 34.17724854 25.48890869 34.10302734 26.88037109 C32.89547262 47.62039702 32.89547262 47.62039702 30.5078125 51.8828125 C27.3034034 53.72309564 23.89918757 53.34809744 20.3125 53.25 C19.57386719 53.24484375 18.83523437 53.2396875 18.07421875 53.234375 C14.69438531 53.18668776 11.47665104 52.98770799 8.125 52.5078125 C5.30498241 52.10583631 2.66403521 51.88595892 -0.171875 51.7890625 C-1.40357422 51.74652344 -1.40357422 51.74652344 -2.66015625 51.703125 C-4.3604411 51.65056596 -6.06100549 51.60644298 -7.76171875 51.5703125 C-8.57769531 51.539375 -9.39367188 51.5084375 -10.234375 51.4765625 C-10.97010742 51.45674316 -11.70583984 51.43692383 -12.46386719 51.41650391 C-14.97074912 50.88746623 -15.88291333 50.00554926 -17.4375 48 C-17.86104458 45.17636948 -17.95078771 43.69805042 -16.23632812 41.36645508 C-13.82233447 39.53269795 -12.2939399 39.62695443 -9.28125 39.63671875 C-8.25773438 39.63736328 -7.23421875 39.63800781 -6.1796875 39.63867188 C-4.57480469 39.6628418 -4.57480469 39.6628418 -2.9375 39.6875 C-1.89851563 39.68427734 -0.85953125 39.68105469 0.2109375 39.67773438 C7.41392612 39.72713143 13.21969577 40.66494469 20.5625 42 C21.2225 32.43 21.8825 22.86 22.5625 13 C19.1284375 13.0928125 19.1284375 13.0928125 15.625 13.1875 C7.75267419 13.26410854 0.0044351 12.57897907 -7.8125 11.6875 C-8.91198975 11.56979248 -10.01147949 11.45208496 -11.14428711 11.33081055 C-12.17690674 11.20488525 -13.20952637 11.07895996 -14.2734375 10.94921875 C-15.19688965 10.83924561 -16.1203418 10.72927246 -17.07177734 10.6159668 C-19.75077965 9.9184309 -20.78632269 9.19608597 -22.4375 7 C-22.8125 4.5 -22.8125 4.5 -22.4375 2 C-17.71595646 -4.24077837 -6.85753092 -0.85094538 0 0 Z " fill="#000000" transform="translate(23.4375,5)"/>
</svg>
