<?xml version="1.0" encoding="UTF-8"?>
<svg version="1.1" xmlns="http://www.w3.org/2000/svg" width="64" height="64">
<path d="M0 0 C1.640625 1.0859375 1.640625 1.0859375 3 3 C3.328125 6.0625 3.328125 6.0625 3.25 10 C3.23904297 10.71534912 3.22808594 11.43069824 3.21679688 12.16772461 C3.16707387 14.77953363 3.08619329 17.38913496 3 20 C2.96326172 21.1358252 2.92652344 22.27165039 2.88867188 23.44189453 C2.62655552 31.29602384 2.32632282 39.14829116 2 47 C2.77601562 46.99476318 3.55203125 46.98952637 4.3515625 46.98413086 C7.90103328 46.96321736 11.45049104 46.95029432 15 46.9375 C16.22074219 46.92912109 17.44148438 46.92074219 18.69921875 46.91210938 C24.89960932 46.89535156 30.8726207 47.02727854 37 48 C37.31785235 44.39628535 37.62877494 40.79200766 37.9375 37.1875 C38.0778064 35.56678589 38.0778064 35.56678589 38.22094727 33.91333008 C38.65889041 28.70360745 39.05075003 23.50602692 39.25 18.28125 C39.28359619 17.41733643 39.31719238 16.55342285 39.35180664 15.66333008 C39.40786306 14.04376269 39.45181355 12.42371952 39.48217773 10.8034668 C39.6672619 5.47978383 39.6672619 5.47978383 41.37890625 3.01171875 C43.73300005 1.54253732 45.28290864 1.5924363 48 2 C50.17128373 3.6257856 50.91727654 4.50886675 51.37231445 7.21044922 C51.3693335 8.06654785 51.36635254 8.92264648 51.36328125 9.8046875 C51.36416748 10.77092041 51.36505371 11.73715332 51.3659668 12.73266602 C51.34832275 13.76963623 51.33067871 14.80660645 51.3125 15.875 C51.3019458 16.93968506 51.2913916 18.00437012 51.28051758 19.10131836 C51.1629811 26.27529831 50.81218375 33.41498566 50.1875 40.5625 C50.11764893 41.41118652 50.04779785 42.25987305 49.97583008 43.13427734 C49.37673977 49.0727228 48.37560606 54.62439394 44 59 C41.93359375 59.44921875 41.93359375 59.44921875 39.4375 59.6875 C38.63183594 59.77386719 37.82617188 59.86023437 36.99609375 59.94921875 C34 60 34 60 30.12109375 59.51171875 C22.64246339 58.59665151 15.06815123 59.00335818 7.54931641 59.17138672 C5.54613656 59.21362387 3.542569 59.23601372 1.5390625 59.2578125 C0.35521973 59.2798877 -0.82862305 59.30196289 -2.04833984 59.32470703 C-5 59 -5 59 -6.84619141 57.73388672 C-9.60145175 53.59341719 -9.14623306 49.0049476 -9.1328125 44.19140625 C-9.13376923 43.42884018 -9.13472595 42.66627411 -9.13571167 41.88059998 C-9.13639155 40.26423053 -9.13455065 38.64785833 -9.13037109 37.03149414 C-9.1250866 34.60231069 -9.13028777 32.17331783 -9.13671875 29.74414062 C-9.15417361 4.51701263 -9.15417361 4.51701263 -6.61376953 1.17797852 C-4.29312841 -0.51598418 -2.8021279 -0.42031918 0 0 Z " fill="#000000" transform="translate(11,3)"/>
</svg>
