<?xml version="1.0" encoding="UTF-8"?>
<svg version="1.1" xmlns="http://www.w3.org/2000/svg" width="64" height="64">
<path d="M0 0 C1.49403143 2.54864185 1.62960464 3.90608872 1.0625 6.8125 C-2.634092 10.4656628 -5.40543881 11.39089181 -10.5234375 11.859375 C-12.41449219 12.04306641 -12.41449219 12.04306641 -14.34375 12.23046875 C-16.30828125 12.39482422 -16.30828125 12.39482422 -18.3125 12.5625 C-19.61445312 12.68753906 -20.91640625 12.81257813 -22.2578125 12.94140625 C-28.17736417 13.49107891 -33.98888718 13.87490796 -39.9375 13.8125 C-40.80713087 16.80956695 -41.05513099 19.46206526 -41.03515625 22.578125 C-41.03193359 23.46757812 -41.02871094 24.35703125 -41.02539062 25.2734375 C-41.01701172 26.19382812 -41.00863281 27.11421875 -41 28.0625 C-40.99548828 28.99835937 -40.99097656 29.93421875 -40.98632812 30.8984375 C-40.97456918 33.20319041 -40.95813426 35.50781227 -40.9375 37.8125 C-30.08237282 40.60980122 -19.3927039 43.2820023 -8.18188477 44.09130859 C-5.3383439 44.33152845 -3.34719449 44.51679309 -1 46.2109375 C0.5470722 48.54292133 0.47270304 50.07781308 0.0625 52.8125 C-1.55041686 54.96476803 -2.43010168 55.72762942 -5.109375 56.17578125 C-16.86934075 55.94414556 -28.14961845 54.16335143 -39.5625 51.4375 C-40.84241821 51.1422644 -40.84241821 51.1422644 -42.14819336 50.84106445 C-42.95780518 50.63827881 -43.76741699 50.43549316 -44.6015625 50.2265625 C-45.67591553 49.96286865 -45.67591553 49.96286865 -46.77197266 49.69384766 C-49.77978153 48.46969997 -51.67918176 47.16327979 -53.9375 44.8125 C-54.42919922 41.65551758 -54.42919922 41.65551758 -54.2421875 37.95703125 C-54.20183884 36.96542244 -54.20183884 36.96542244 -54.16067505 35.95378113 C-54.06862973 33.84225665 -53.94080759 31.73459867 -53.8125 29.625 C-53.74770971 28.22601565 -53.68518725 26.82692432 -53.625 25.42773438 C-53.44857707 21.55210433 -53.20305284 17.68311782 -52.9375 13.8125 C-52.87981445 12.85907715 -52.82212891 11.9056543 -52.76269531 10.92333984 C-52.32224974 5.4021198 -52.32224974 5.4021198 -50.83618164 3.12475586 C-47.95811092 1.1356045 -45.39272221 1.28513013 -41.92578125 1.1171875 C-41.23872604 1.07941193 -40.55167084 1.04163635 -39.84379578 1.00271606 C-37.64631431 0.88439601 -35.44848272 0.78527456 -33.25 0.6875 C-31.06972714 0.57871601 -28.88971235 0.46592963 -26.70976257 0.3508606 C-24.71872049 0.24765304 -22.72716221 0.15454941 -20.7355957 0.06201172 C-1.91599755 -1.17432108 -1.91599755 -1.17432108 0 0 Z " fill="#000000" transform="translate(59.9375,6.1875)"/>
</svg>
