<?xml version="1.0" encoding="UTF-8"?>
<svg version="1.1" xmlns="http://www.w3.org/2000/svg" width="64" height="64">
<path d="M0 0 C2.98408259 0.44761239 3.6763428 1.02572158 5.5 3.375 C5.84057617 5.4597168 5.84057617 5.4597168 5.79296875 7.82421875 C5.7784668 9.09555664 5.7784668 9.09555664 5.76367188 10.39257812 C5.73853516 11.27365234 5.71339844 12.15472656 5.6875 13.0625 C5.66719727 14.40151367 5.66719727 14.40151367 5.64648438 15.76757812 C5.61114079 17.97066166 5.56180493 20.17252582 5.5 22.375 C6.06992676 22.43703613 6.63985352 22.49907227 7.22705078 22.56298828 C11.94910698 23.08153873 16.66801966 23.60659981 21.375 24.25 C23.01082031 24.46269531 23.01082031 24.46269531 24.6796875 24.6796875 C27.63231702 25.40762109 28.74464566 25.93433608 30.5 28.375 C30.92194806 31.18798705 31.00519687 32.67408117 29.3203125 35.01171875 C24.90956688 38.31504541 17.42369452 36.6468264 12.265625 35.91796875 C9.66435668 35.44960567 7.08463419 34.92592303 4.5 34.375 C4.45512451 34.96514893 4.41024902 35.55529785 4.36401367 36.16333008 C4.15257324 38.83938127 3.92028477 41.51322457 3.6875 44.1875 C3.61724609 45.11626953 3.54699219 46.04503906 3.47460938 47.00195312 C3.39404297 47.89462891 3.31347656 48.78730469 3.23046875 49.70703125 C3.16239014 50.52921143 3.09431152 51.3513916 3.02416992 52.19848633 C2.3992465 54.7933593 1.60374575 55.76617822 -0.5 57.375 C-3.27209997 57.790815 -4.7872658 57.8535501 -7.140625 56.2734375 C-9.17935546 53.42624495 -8.82417343 51.08148169 -8.75 47.625 C-8.73453125 46.43390625 -8.7190625 45.2428125 -8.703125 44.015625 C-8.50246238 40.41913342 -8.06528951 36.93085339 -7.5 33.375 C-9.28857422 33.31892578 -9.28857422 33.31892578 -11.11328125 33.26171875 C-12.679719 33.19605968 -14.24612384 33.12961232 -15.8125 33.0625 C-16.99102539 33.02866211 -16.99102539 33.02866211 -18.19335938 32.99414062 C-18.95068359 32.95869141 -19.70800781 32.92324219 -20.48828125 32.88671875 C-21.18477783 32.86053467 -21.88127441 32.83435059 -22.59887695 32.80737305 C-25.04303353 32.2514977 -25.96869799 31.32929739 -27.5 29.375 C-27.875 26.875 -27.875 26.875 -27.5 24.375 C-25.62139167 21.8701889 -24.53898126 21.38799375 -21.5 20.375 C-18.92734182 20.30470879 -16.38358569 20.28129168 -13.8125 20.3125 C-13.11060547 20.31701172 -12.40871094 20.32152344 -11.68554688 20.32617188 C-9.95699462 20.33793073 -8.22848635 20.35586546 -6.5 20.375 C-6.46261719 19.18261719 -6.42523437 17.99023438 -6.38671875 16.76171875 C-6.32105968 15.195281 -6.25461232 13.62887616 -6.1875 12.0625 C-6.16494141 11.27681641 -6.14238281 10.49113281 -6.11914062 9.68164062 C-6.08369141 8.92431641 -6.04824219 8.16699219 -6.01171875 7.38671875 C-5.98553467 6.69022217 -5.95935059 5.99372559 -5.93237305 5.27612305 C-5.1516924 1.84350861 -3.39700738 0.50955111 0 0 Z " fill="#000000" transform="translate(30.5,3.625)"/>
</svg>
