<?xml version="1.0" encoding="UTF-8"?>
<svg version="1.1" xmlns="http://www.w3.org/2000/svg" width="64" height="64">
<path d="M0 0 C2.5 1.75 2.5 1.75 4 5 C4.82888467 12.31118786 3.71695811 18.92273424 2 26 C2.62044189 26.01458252 3.24088379 26.02916504 3.88012695 26.04418945 C6.69154633 26.11866588 9.50177749 26.21532564 12.3125 26.3125 C13.28896484 26.33505859 14.26542969 26.35761719 15.27148438 26.38085938 C16.20927734 26.41630859 17.14707031 26.45175781 18.11328125 26.48828125 C18.97735596 26.51446533 19.84143066 26.54064941 20.73168945 26.56762695 C23.44198424 27.08424864 24.35275764 27.8202326 26 30 C26.44921875 32.3984375 26.44921875 32.3984375 26 35 C24.20703125 37.3515625 24.20703125 37.3515625 21.8125 39.625 C21.03519531 40.38039062 20.25789063 41.13578125 19.45703125 41.9140625 C17 44 17 44 14.42578125 45.4921875 C11.69595469 47.1889879 10.26228794 48.91467406 8.375 51.5 C5.03385684 56.03548845 2.11169878 59.44415061 -3 62 C-5.8572046 62.40817209 -7.2687889 62.52795698 -9.63012695 60.82299805 C-11.52739042 58.29815999 -11.34271916 56.59130687 -11.29296875 53.45703125 C-11.28330078 52.38388672 -11.27363281 51.31074219 -11.26367188 50.20507812 C-11.23853516 49.08552734 -11.21339844 47.96597656 -11.1875 46.8125 C-11.16719727 45.11577148 -11.16719727 45.11577148 -11.14648438 43.38476562 C-11.11109958 40.58936683 -11.06172948 37.79492108 -11 35 C-12.08539062 34.96261719 -13.17078125 34.92523438 -14.2890625 34.88671875 C-15.73440739 34.82102125 -17.17971839 34.75457524 -18.625 34.6875 C-19.33785156 34.66494141 -20.05070312 34.64238281 -20.78515625 34.61914062 C-25.68202108 34.37205112 -30.34618517 33.65381483 -34 30 C-34.5 26.8125 -34.5 26.8125 -34 23 C-32.47953435 21.24943421 -30.82816911 19.98017514 -28.9765625 18.5859375 C-26.9293547 16.94331622 -25.45219037 15.23105499 -23.8125 13.1875 C-17.85712187 6.25297187 -9.77094207 -2.44273552 0 0 Z " fill="#000000" transform="translate(34,0)"/>
</svg>
