<?xml version="1.0" standalone="no"?>
<!DOCTYPE svg PUBLIC "-//W3C//DTD SVG 20010904//EN"
 "http://www.w3.org/TR/2001/REC-SVG-20010904/DTD/svg10.dtd">
<svg version="1.0" xmlns="http://www.w3.org/2000/svg"
 width="64.000000pt" height="64.000000pt" viewBox="0 0 64.000000 64.000000"
 preserveAspectRatio="xMidYMid meet">

<g transform="translate(0.000000,64.000000) scale(0.100000,-0.100000)"
fill="#000000" stroke="none">
<path d="M295 600 c-16 -18 -17 -36 -12 -207 3 -104 3 -197 -2 -207 -5 -13
-32 -25 -95 -42 -94 -24 -126 -44 -126 -79 0 -27 30 -55 59 -55 12 0 68 12
124 26 l102 27 95 -22 c52 -11 107 -21 121 -21 30 0 59 28 59 57 0 33 -31 51
-127 73 l-90 21 -7 207 c-6 168 -10 210 -23 225 -21 23 -56 22 -78 -3z"/>
</g>
</svg>
