<?xml version="1.0" standalone="no"?>
<!DOCTYPE svg PUBLIC "-//W3C//DTD SVG 20010904//EN"
 "http://www.w3.org/TR/2001/REC-SVG-20010904/DTD/svg10.dtd">
<svg version="1.0" xmlns="http://www.w3.org/2000/svg"
 width="64.000000pt" height="64.000000pt" viewBox="0 0 64.000000 64.000000"
 preserveAspectRatio="xMidYMid meet">

<g transform="translate(0.000000,64.000000) scale(0.100000,-0.100000)"
fill="#000000" stroke="none">
<path d="M415 610 c-27 -4 -81 -12 -118 -19 -52 -9 -89 -9 -149 -1 -71 10 -82
9 -99 -6 -25 -23 -24 -56 3 -81 17 -15 43 -23 96 -28 41 -4 75 -12 76 -19 2
-6 12 -38 22 -71 14 -48 17 -88 15 -203 -2 -125 0 -146 15 -163 9 -10 27 -19
39 -19 44 0 52 25 59 185 6 135 5 157 -13 215 -12 36 -21 68 -21 72 0 8 81 25
160 33 70 7 100 25 100 60 0 51 -52 64 -185 45z"/>
</g>
</svg>
