<?xml version="1.0" standalone="no"?>
<!DOCTYPE svg PUBLIC "-//W3C//DTD SVG 20010904//EN"
 "http://www.w3.org/TR/2001/REC-SVG-20010904/DTD/svg10.dtd">
<svg version="1.0" xmlns="http://www.w3.org/2000/svg"
 width="64.000000pt" height="64.000000pt" viewBox="0 0 64.000000 64.000000"
 preserveAspectRatio="xMidYMid meet">

<g transform="translate(0.000000,64.000000) scale(0.100000,-0.100000)"
fill="#000000" stroke="none">
<path d="M527 573 c-12 -14 -37 -136 -37 -180 0 -6 -275 4 -358 13 -92 10
-121 -44 -58 -105 l35 -34 110 7 c60 4 144 4 186 0 l76 -7 -7 -112 c-8 -142
-2 -157 64 -153 l47 3 2 95 c2 126 20 332 35 397 10 47 9 55 -7 73 -22 25 -67
26 -88 3z"/>
</g>
</svg>
